<svg width="1440" height="900" viewBox="0 0 1440 900" fill="none" xmlns="http://www.w3.org/2000/svg">
<g clip-path="url(#clip0_1355_804)">
<path d="M606 474V426H624.942C628.9 425.718 632.858 426.283 636.533 427.694C640.491 430.236 643.036 434.753 642.753 439.271C643.319 444.918 639.643 450.283 633.989 451.977C630.031 453.106 626.356 453.671 622.398 453.671H611.654V474H606ZM621.549 448.306C632.575 448.306 636.533 446.047 636.533 439.271C636.816 436.73 635.685 434.471 633.706 432.777C631.444 431.083 628.9 431.083 622.398 431.083H611.654V448.306H621.549ZM745.662 453.671V448.306H764.038V453.389H745.662V453.671ZM798.247 474V426H817.189C821.147 425.718 825.105 426.283 828.78 427.694C832.738 430.236 835.283 434.753 835 439.271C835.565 444.918 831.89 450.283 826.236 451.977C822.56 453.106 818.602 453.671 814.644 453.389H803.901V474H798.247ZM813.796 448.306C824.822 448.306 828.78 446.047 828.78 439.271C829.063 436.73 827.932 434.471 825.953 432.777C823.691 431.083 821.147 431.083 814.644 431.083H803.901V448.306H813.796Z" fill="black"/>
</g>
<defs>
<clipPath id="clip0_1355_804">
<rect width="229" height="48" fill="white" transform="translate(606 426)"/>
</clipPath>
</defs>
</svg>
