<svg width="1440" height="900" viewBox="0 0 1440 900" fill="none" xmlns="http://www.w3.org/2000/svg">
<path d="M567.443 456.529C562.801 453.849 562.801 447.151 567.443 444.471L664.307 388.546C668.949 385.866 674.75 389.216 674.75 394.575V506.425C674.75 511.784 668.949 515.134 664.307 512.454L567.443 456.529Z" fill="#8C52FF"/>
<path d="M718.934 481.371V417.225H743.965C752.458 417.225 759.276 420.306 764.419 426.466C769.563 432.567 772.135 440.402 772.135 449.971C772.135 461.036 768.726 469.439 761.907 475.181C756.943 479.308 750.603 481.371 742.888 481.371H718.934ZM731.943 470.157H741.991C747.912 470.157 752.218 468.452 754.91 465.043C757.601 461.574 758.947 456.55 758.947 449.971C758.947 443.392 757.511 438.159 754.641 434.271C751.83 430.324 747.733 428.35 742.35 428.35H731.943V470.157ZM801.371 482.807C792.698 482.807 785.97 480.982 781.185 477.334C776.4 473.626 773.888 468.363 773.649 461.544H786.388C786.807 465.372 788.153 468.123 790.425 469.798C792.758 471.473 796.227 472.31 800.832 472.31C804.481 472.31 807.471 471.652 809.804 470.336C812.136 468.961 813.303 466.867 813.303 464.056C813.303 463.039 813.153 462.142 812.854 461.365C812.615 460.527 812.076 459.81 811.239 459.212C810.402 458.554 809.684 458.045 809.086 457.687C808.488 457.268 807.381 456.849 805.767 456.431C804.152 455.952 802.926 455.623 802.088 455.444C801.251 455.204 799.696 454.816 797.423 454.277C794.672 453.619 792.399 453.051 790.605 452.573C788.87 452.094 786.927 451.347 784.773 450.33C782.68 449.313 781.005 448.207 779.749 447.011C778.553 445.755 777.536 444.14 776.699 442.166C775.862 440.132 775.443 437.83 775.443 435.258C775.443 429.098 777.686 424.373 782.172 421.083C786.717 417.734 792.668 416.059 800.025 416.059C807.322 416.059 813.153 417.794 817.519 421.263C821.885 424.731 824.307 429.666 824.786 436.065H812.316C811.957 432.955 810.641 430.563 808.368 428.888C806.155 427.214 803.344 426.376 799.935 426.376C796.406 426.376 793.595 427.064 791.502 428.44C789.409 429.815 788.362 431.639 788.362 433.912C788.362 436.364 789.379 438.159 791.412 439.295C793.506 440.431 797.154 441.568 802.357 442.704C805.467 443.362 808.009 443.99 809.983 444.588C811.957 445.127 814.08 445.934 816.353 447.011C818.685 448.027 820.48 449.164 821.736 450.42C823.051 451.676 824.128 453.35 824.965 455.444C825.863 457.477 826.311 459.84 826.311 462.531C826.311 468.871 824.008 473.835 819.403 477.424C814.798 481.012 808.787 482.807 801.371 482.807ZM824.895 481.371L845.619 447.818L826.42 417.225H841.043L852.885 437.501H853.065L864.907 417.225H879.082L860.242 447.728L881.504 481.371H866.343L853.244 457.956H853.065L839.787 481.371H824.895Z" fill="white"/>
</svg>
