<svg width="1440" height="900" viewBox="0 0 1440 900" fill="none" xmlns="http://www.w3.org/2000/svg">
<path d="M598.654 450.426C598.654 472.868 584.934 476.004 571.312 476.004H564.942V424.946H571.312C584.934 424.946 598.654 427.984 598.654 450.426ZM552.496 414.95V486H571.9C594.342 486 611.59 478.16 611.59 450.426C611.59 422.692 594.342 414.95 571.9 414.95H552.496ZM622.933 486H651.451C665.955 486 678.009 480.218 678.009 464.93C678.009 455.522 673.207 450.916 667.327 448.27C671.541 445.624 675.265 439.744 675.265 433.08C675.265 418.478 662.623 414.95 649.687 414.95H622.933V486ZM635.379 454.15H651.255C660.761 454.15 665.171 457.58 665.171 464.93C665.171 471.986 660.859 476.004 651.941 476.004H635.379V454.15ZM635.379 424.946H650.863C657.919 424.946 662.623 428.18 662.623 434.452C662.623 441.508 658.213 444.644 650.863 444.644H635.379V424.946ZM700.745 414.95H688.299V486H700.745V414.95ZM744.593 464.832V454.346H712.645V464.832H744.593ZM807.538 462.382C805.284 472.182 798.62 477.082 788.918 477.082C777.55 477.082 768.828 467.478 768.828 450.23C768.828 433.08 777.746 423.868 789.016 423.868C798.326 423.868 805.088 428.866 807.342 438.568H819.298C816.456 422.594 805.186 413.676 789.408 413.676C768.73 413.676 755.99 427.886 755.99 450.23C755.99 472.574 768.044 487.274 788.82 487.274C805.284 487.274 816.456 478.356 819.494 462.382H807.538ZM879.411 462.382C877.157 472.182 870.493 477.082 860.791 477.082C849.423 477.082 840.701 467.478 840.701 450.23C840.701 433.08 849.619 423.868 860.889 423.868C870.199 423.868 876.961 428.866 879.215 438.568H891.171C888.329 422.594 877.059 413.676 861.281 413.676C840.603 413.676 827.863 427.886 827.863 450.23C827.863 472.574 839.917 487.274 860.693 487.274C877.157 487.274 888.329 478.356 891.367 462.382H879.411Z" fill="white"/>
</svg>
