<svg width="1440" height="900" viewBox="0 0 1440 900" fill="none" xmlns="http://www.w3.org/2000/svg">
<path d="M278.232 415.468V400.34H349.532V415.468H322.872V489H304.892V415.468H278.232ZM355.029 489V400.34H373.009V489H355.029ZM378.444 415.468V400.34H449.744V415.468H423.084V489H405.104V415.468H378.444ZM437.528 489L468.404 400.34H487.004L518.252 489H499.528L493.576 470.152H461.584L455.756 489H437.528ZM473.736 430.844L465.8 456.388H489.236L481.3 430.844L477.704 417.204H477.456C475.968 423.156 474.728 427.703 473.736 430.844ZM521.995 489V400.34H540.223L569.735 449.816C570.561 451.221 571.471 452.957 572.463 455.024C573.537 457.091 574.364 458.827 574.943 460.232L575.935 462.216H576.183C575.852 456.099 575.687 450.973 575.687 446.84V400.34H593.419V489H576.059L545.803 440.02C544.976 438.615 544.025 436.92 542.951 434.936C541.876 432.869 541.049 431.133 540.471 429.728L539.479 427.744H539.231C539.561 433.944 539.727 439.111 539.727 443.244V489H521.995ZM603.406 489V400.34H621.386V489H603.406ZM665.634 490.488C654.226 490.488 645.546 487.925 639.594 482.8C633.642 477.592 630.666 470.152 630.666 460.48V400.34H648.646V460.48C648.646 470.896 654.185 476.104 665.262 476.104C670.801 476.104 674.975 474.657 677.786 471.764C680.597 468.871 682.002 465.027 682.002 460.232V400.34H699.982V460.48C699.982 470.069 697.047 477.468 691.178 482.676C685.391 487.884 676.877 490.488 665.634 490.488ZM709.186 489V400.34H734.482L747.006 444.856C747.916 448.163 748.825 451.841 749.734 455.892C750.726 459.86 751.47 463.001 751.966 465.316L752.586 468.788H752.834C754.405 460.273 756.224 452.296 758.29 444.856L770.814 400.34H796.482V489H779.742V438.16L780.486 419.808H780.238C778.916 426.752 777.634 432.373 776.394 436.672L761.142 489H743.906L729.026 436.672L725.182 419.808H724.934C725.43 427.248 725.678 433.365 725.678 438.16V489H709.186ZM823.567 489V400.34H863.247C872.753 400.34 879.904 402.489 884.699 406.788C889.411 411.004 891.767 416.543 891.767 423.404C891.767 432.084 887.137 437.995 877.879 441.136V441.508C882.839 442.996 886.807 445.683 889.783 449.568C892.841 453.453 894.371 458.083 894.371 463.456C894.371 471.309 891.767 477.468 886.559 481.932C881.185 486.644 873.745 489 864.239 489H823.567ZM841.547 449.32V474.12H862.255C866.553 474.12 869.943 473.045 872.423 470.896C874.903 468.664 876.143 465.729 876.143 462.092C876.143 458.041 874.779 454.9 872.051 452.668C869.405 450.436 865.975 449.32 861.759 449.32H841.547ZM841.547 436.052H861.015C864.983 436.052 868.165 435.143 870.563 433.324C872.96 431.423 874.159 428.777 874.159 425.388C874.159 422.081 873.001 419.519 870.687 417.7C868.455 415.881 865.355 414.972 861.387 414.972H841.547V436.052ZM901.222 489V400.34H941.894C950.408 400.34 957.27 402.613 962.478 407.16C967.768 411.707 970.414 417.659 970.414 425.016C970.414 436.341 964.999 443.492 954.17 446.468V446.84C958.386 448.08 961.527 450.064 963.594 452.792C965.743 455.437 967.107 459.405 967.686 464.696C967.851 466.68 968.016 469.036 968.182 471.764C968.43 474.409 968.595 476.517 968.678 478.088C968.843 479.659 969.008 481.229 969.174 482.8C969.422 484.371 969.711 485.611 970.042 486.52C970.455 487.347 970.951 487.884 971.53 488.132V489H954.294C953.963 488.835 953.674 488.545 953.426 488.132C953.178 487.636 952.971 486.975 952.806 486.148C952.64 485.321 952.475 484.495 952.31 483.668C952.227 482.759 952.103 481.643 951.938 480.32C951.855 478.915 951.772 477.716 951.69 476.724C951.607 475.649 951.483 474.285 951.318 472.632C951.235 470.896 951.152 469.532 951.07 468.54C950.326 458.455 944.539 453.412 933.71 453.412H919.202V489H901.222ZM919.202 414.848V439.524H938.298C943.01 439.524 946.606 438.408 949.086 436.176C951.648 433.944 952.93 431.009 952.93 427.372C952.93 423.652 951.731 420.635 949.334 418.32C946.936 416.005 943.423 414.848 938.794 414.848H919.202ZM978.395 489V400.34H996.375V489H978.395ZM1045.21 490.86C1032.73 490.86 1022.48 486.561 1014.46 477.964C1006.52 469.284 1002.55 458.289 1002.55 444.98C1002.55 431.588 1006.44 420.511 1014.21 411.748C1021.98 402.985 1032.27 398.604 1045.09 398.604C1055.67 398.604 1064.14 401.415 1070.51 407.036C1076.95 412.575 1080.67 419.725 1081.67 428.488H1063.81C1062.98 423.941 1060.92 420.345 1057.61 417.7C1054.39 415.055 1050.21 413.732 1045.09 413.732C1037.23 413.732 1031.24 416.625 1027.11 422.412C1022.97 428.199 1020.91 435.721 1020.91 444.98C1020.91 454.156 1023.1 461.637 1027.48 467.424C1031.94 473.211 1037.85 476.104 1045.21 476.104C1050.42 476.104 1054.76 474.699 1058.23 471.888C1061.7 468.995 1063.73 465.192 1064.31 460.48H1081.91C1081.42 468.829 1078.15 475.815 1072.12 481.436C1065.42 487.719 1056.45 490.86 1045.21 490.86ZM1087.44 489V400.34H1105.42V435.68L1139.52 400.34H1161.84L1127.12 435.804L1164.08 489H1143L1114.48 447.584L1105.42 456.76V489H1087.44Z" fill="#1E1E1E"/>
</svg>
