<svg width="1440" height="900" viewBox="0 0 1440 900" fill="none" xmlns="http://www.w3.org/2000/svg">
<path d="M501 427.944H507.656V471.784H530.568V473H503.624V429.608L501 428.52V427.944ZM552.901 429.672L550.405 428.328V427.944H555.653L571.653 473H567.557L563.269 460.52H543.429L539.077 473H537.669L552.901 429.672ZM543.813 459.432H562.885L553.349 431.848L543.813 459.432ZM578.585 428.52V427.944H607.705V429.16H585.177V448.232H603.097V449.448H585.177V473H581.145V429.608L578.585 428.52ZM623.361 429.672L620.865 428.328V427.944H626.113L642.113 473H638.017L633.729 460.52H613.889L609.537 473H608.129L623.361 429.672ZM614.273 459.432H633.345L623.809 431.848L614.273 459.432ZM640.484 427.944H647.204L660.004 449.832L672.548 427.944H673.828L660.516 451.24V473H656.612V451.944L643.492 429.928L640.484 428.328V427.944ZM680.837 427.944H709.957V429.16H687.493V448.232H705.349V449.448H687.493V471.784H709.957V473H683.397V429.608L680.837 428.52V427.944ZM718.943 427.944H749.919V429.16H736.479V473H732.383V429.16H720.543L719.455 431.784H718.943V427.944ZM758.485 427.944H789.461V429.16H776.021V473H771.925V429.16H760.085L758.997 431.784H758.485V427.944ZM798.027 427.944H827.147V429.16H804.683V448.232H822.539V449.448H804.683V471.784H827.147V473H800.587V429.608L798.027 428.52V427.944ZM856.612 433.064L860.388 427.944H862.052V473H858.404V433.64H856.612V433.064ZM871.28 462.376L896.944 427.944H898.48V462.44H900.4V463.592H898.48V473.064H894.512V463.592H871.28V462.376ZM872.624 462.44H894.512V433.256L872.624 462.44ZM932.239 438.248C932.239 436.456 932.004 434.92 931.535 433.64C931.108 432.317 930.511 431.25 929.743 430.44C928.975 429.586 928.058 428.968 926.991 428.584C925.967 428.2 924.836 428.008 923.599 428.008C921.124 428.008 919.098 428.754 917.519 430.248C915.94 431.698 915.151 434.066 915.151 437.352C915.151 439.016 915.492 440.445 916.175 441.64C916.858 442.834 917.732 443.858 918.799 444.712C919.866 445.522 921.039 446.184 922.319 446.696C923.642 447.165 924.943 447.549 926.223 447.848C928.058 447.122 929.508 445.885 930.575 444.136C931.684 442.344 932.239 440.381 932.239 438.248ZM921.999 449.64C920.676 449.853 919.439 450.301 918.287 450.984C917.135 451.666 916.132 452.541 915.279 453.608C914.468 454.674 913.828 455.912 913.359 457.32C912.932 458.685 912.762 460.178 912.847 461.8C912.932 463.634 913.295 465.256 913.935 466.664C914.575 468.029 915.386 469.181 916.367 470.12C917.348 471.058 918.458 471.762 919.695 472.232C920.932 472.658 922.191 472.872 923.471 472.872C924.708 472.872 925.903 472.68 927.055 472.296C928.25 471.869 929.338 471.25 930.319 470.44C931.3 469.629 932.132 468.626 932.815 467.432C933.498 466.194 933.946 464.765 934.159 463.144C934.5 460.712 934.372 458.728 933.775 457.192C933.178 455.656 932.282 454.418 931.087 453.48C929.892 452.498 928.484 451.752 926.863 451.24C925.284 450.685 923.663 450.152 921.999 449.64ZM909.135 461.16C909.135 459.282 909.455 457.682 910.095 456.36C910.778 454.994 911.652 453.842 912.719 452.904C913.828 451.965 915.066 451.197 916.431 450.6C917.796 450.002 919.183 449.512 920.591 449.128C919.439 448.658 918.287 448.061 917.135 447.336C916.026 446.61 915.044 445.757 914.191 444.776C913.338 443.794 912.634 442.685 912.079 441.448C911.567 440.21 911.311 438.845 911.311 437.352C911.311 435.645 911.652 434.152 912.335 432.872C913.06 431.592 913.999 430.546 915.151 429.736C916.303 428.882 917.604 428.242 919.055 427.816C920.548 427.389 922.063 427.176 923.599 427.176C925.007 427.176 926.436 427.41 927.887 427.88C929.38 428.306 930.724 428.968 931.919 429.864C933.114 430.717 934.095 431.826 934.863 433.192C935.631 434.514 936.015 436.114 936.015 437.992C936.015 439.485 935.78 440.786 935.311 441.896C934.842 443.005 934.202 443.965 933.391 444.776C932.623 445.544 931.727 446.205 930.703 446.76C929.679 447.314 928.612 447.805 927.503 448.232C928.783 448.53 930.02 449 931.215 449.64C932.41 450.237 933.476 451.005 934.415 451.944C935.354 452.882 936.122 454.013 936.719 455.336C937.316 456.658 937.679 458.173 937.807 459.88C937.978 462.184 937.679 464.21 936.911 465.96C936.143 467.666 935.055 469.117 933.647 470.312C932.282 471.464 930.682 472.338 928.847 472.936C927.055 473.49 925.22 473.768 923.343 473.768C921.551 473.768 919.802 473.512 918.095 473C916.431 472.488 914.916 471.698 913.551 470.632C912.228 469.565 911.162 468.242 910.351 466.664C909.54 465.085 909.135 463.25 909.135 461.16Z" fill="white"/>
</svg>
