<svg width="1440" height="900" viewBox="0 0 1440 900" fill="none" xmlns="http://www.w3.org/2000/svg">
<path fill-rule="evenodd" clip-rule="evenodd" d="M647.243 382.923C647.17 381.85 647.576 380.747 648.356 380.007C649.136 379.266 650.205 378.913 651.273 379.042L651.296 379.045L651.355 379.052L651.572 379.079C651.76 379.103 652.033 379.139 652.38 379.186C653.075 379.28 654.067 379.421 655.272 379.608C657.676 379.981 660.949 380.542 664.396 381.292C667.826 382.038 671.517 382.99 674.725 384.161C677.753 385.266 681.01 386.79 682.93 388.995C686.574 393.179 690.243 401.039 693.24 408.906C696.825 418.315 704.784 423.273 716.046 423.273C727.308 423.273 735.267 418.315 738.852 408.906C741.849 401.039 745.518 393.179 749.162 388.995C751.082 386.79 754.339 385.266 757.368 384.16C760.575 382.99 764.266 382.038 767.696 381.292C771.143 380.542 774.416 379.981 776.821 379.608C778.025 379.421 779.017 379.28 779.711 379.186C780.059 379.139 780.332 379.103 780.52 379.079L780.737 379.052L780.795 379.045L780.819 379.042C781.887 378.913 782.956 379.266 783.736 380.006C784.516 380.746 784.922 381.85 784.849 382.923C784.813 383.389 784.708 384.746 784.634 385.576C784.485 387.234 784.258 389.531 783.941 392.087C783.318 397.101 782.311 403.459 780.767 407.873C778.532 414.262 774.577 419.973 769.92 425.435C766.348 429.624 762.214 433.829 757.98 438.137C756.726 439.412 755.463 440.698 754.203 441.993C751.56 444.712 750.958 448.832 752.673 452.604C753.724 454.916 754.783 457.494 755.372 459.757C755.663 460.876 755.894 462.115 755.873 463.307C755.853 464.414 755.597 466.193 754.149 467.521L747.237 473.865C746.144 474.868 746.346 476.718 748.124 477.33C754.78 479.621 756.894 488.028 751.543 492.939L724.556 517.706C722.244 519.828 719.189 520.984 716.046 520.984C712.902 520.984 709.847 519.828 707.535 517.706L680.549 492.939C675.198 488.028 677.312 479.621 683.968 477.33C685.746 476.718 685.948 474.868 684.855 473.865L677.942 467.521C676.495 466.193 676.24 464.414 676.219 463.307C676.198 462.116 676.429 460.876 676.72 459.758C677.309 457.494 678.367 454.916 679.419 452.604C681.134 448.832 680.532 444.712 677.889 441.993C676.629 440.697 675.366 439.413 674.112 438.137C669.878 433.83 665.744 429.624 662.172 425.435C657.515 419.973 653.56 414.262 651.325 407.873C649.781 403.459 648.773 397.101 648.151 392.088C647.834 389.531 647.606 387.234 647.458 385.576C647.384 384.746 647.279 383.389 647.243 382.923ZM686.494 411.476C691.538 424.716 703.07 430.492 716.046 430.492C729.022 430.492 740.554 424.716 745.598 411.475C748.603 403.585 751.897 396.846 754.607 393.735C755.213 393.038 756.891 392.019 759.843 390.942C762.615 389.93 765.951 389.059 769.23 388.346C772.19 387.702 775.034 387.201 777.263 386.846C777.135 388.129 776.974 389.613 776.777 391.198C776.156 396.206 775.217 401.876 773.953 405.489C772.141 410.669 768.828 415.59 764.427 420.751C761.037 424.727 757.15 428.682 752.956 432.949L752.952 432.953C751.67 434.257 750.36 435.59 749.027 436.962C744.073 442.058 743.305 449.442 746.101 455.592C747.111 457.811 747.958 459.932 748.386 461.577C748.523 462.103 748.596 462.503 748.63 462.788L742.355 468.547C737.004 473.458 739.119 481.865 745.775 484.156C747.552 484.767 747.754 486.618 746.662 487.621L719.676 512.388C718.733 513.252 717.434 513.766 716.046 513.766C714.658 513.766 713.359 513.252 712.417 512.388L685.43 487.621C684.338 486.618 684.54 484.768 686.317 484.156C692.973 481.865 695.087 473.458 689.736 468.547L683.462 462.788C683.496 462.503 683.569 462.103 683.706 461.577C684.134 459.932 684.981 457.811 685.99 455.592C688.787 449.442 688.019 442.058 683.065 436.962C681.73 435.589 680.419 434.254 679.136 432.949C674.942 428.682 671.055 424.727 667.665 420.751C663.264 415.59 659.951 410.669 658.139 405.489C656.875 401.876 655.936 396.206 655.315 391.198C655.118 389.613 654.957 388.129 654.829 386.846C657.058 387.201 659.902 387.702 662.862 388.346C666.142 389.059 669.477 389.93 672.249 390.942C675.201 392.019 676.879 393.038 677.486 393.735C680.195 396.846 683.488 403.585 686.494 411.476Z" fill="#232326"/>
<path d="M716.045 430.491C703.069 430.491 691.538 424.716 686.494 411.475C683.488 403.585 680.194 396.846 677.485 393.735C676.878 393.038 675.201 392.019 672.249 390.942C669.476 389.93 666.141 389.059 662.861 388.346C659.901 387.702 657.057 387.201 654.829 386.846C654.956 388.129 655.118 389.613 655.314 391.198C655.936 396.206 656.874 401.876 658.139 405.489C659.951 410.669 663.264 415.59 667.664 420.751C671.055 424.727 674.942 428.682 679.135 432.949C680.418 434.254 681.73 435.589 683.064 436.962C688.018 442.058 688.787 449.442 685.99 455.592C684.981 457.811 684.134 459.932 683.705 461.577C683.568 462.103 683.495 462.503 683.461 462.788L689.736 468.547C695.087 473.457 692.973 481.865 686.317 484.156C684.539 484.768 684.337 486.618 685.43 487.621L712.416 512.388C713.358 513.252 714.657 513.765 716.045 513.765C717.433 513.765 718.733 513.252 719.675 512.388L746.662 487.621C747.754 486.618 747.552 484.767 745.774 484.156C739.118 481.865 737.004 473.457 742.355 468.547L748.629 462.788C748.596 462.503 748.523 462.103 748.385 461.577C747.957 459.932 747.11 457.811 746.101 455.592C743.304 449.442 744.072 442.058 749.026 436.962C750.36 435.59 751.67 434.257 752.952 432.953L752.955 432.949C757.149 428.682 761.036 424.727 764.426 420.751C768.828 415.59 772.14 410.669 773.952 405.489C775.217 401.876 776.155 396.206 776.777 391.198C776.974 389.613 777.134 388.129 777.262 386.846C775.034 387.201 772.19 387.702 769.23 388.346C765.95 389.059 762.615 389.93 759.842 390.942C756.89 392.019 755.213 393.038 754.606 393.735C751.897 396.846 748.603 403.585 745.597 411.475C740.553 424.716 729.022 430.491 716.045 430.491Z" fill="#232326"/>
<path d="M712.105 473.528C710.695 472.118 708.41 472.118 707 473.528C705.59 474.937 705.59 477.223 707 478.633L712.68 484.313V489.555C712.68 491.548 714.296 493.164 716.29 493.164C718.283 493.164 719.899 491.548 719.899 489.555V484.313L725.58 478.633C726.989 477.223 726.989 474.937 725.58 473.528C724.17 472.118 721.885 472.118 720.475 473.528L716.29 477.713L712.105 473.528Z" fill="#F05C5C"/>
<path fill-rule="evenodd" clip-rule="evenodd" d="M647.243 382.923C647.17 381.85 647.576 380.747 648.356 380.007C649.136 379.266 650.205 378.913 651.273 379.042L651.296 379.045L651.355 379.052L651.572 379.079C651.76 379.103 652.033 379.139 652.38 379.186C653.075 379.28 654.067 379.421 655.272 379.608C657.676 379.981 660.949 380.542 664.396 381.292C667.826 382.038 671.517 382.99 674.725 384.161C677.753 385.266 681.01 386.79 682.93 388.995C686.574 393.179 690.243 401.039 693.24 408.906C696.825 418.315 704.784 423.273 716.046 423.273C727.308 423.273 735.267 418.315 738.852 408.906C741.849 401.039 745.518 393.179 749.162 388.995C751.082 386.79 754.339 385.266 757.368 384.16C760.575 382.99 764.266 382.038 767.696 381.292C771.143 380.542 774.416 379.981 776.821 379.608C778.025 379.421 779.017 379.28 779.711 379.186C780.059 379.139 780.332 379.103 780.52 379.079L780.737 379.052L780.795 379.045L780.819 379.042C781.887 378.913 782.956 379.266 783.736 380.006C784.516 380.746 784.922 381.85 784.849 382.923C784.813 383.389 784.708 384.746 784.634 385.576C784.485 387.234 784.258 389.531 783.941 392.087C783.318 397.101 782.311 403.459 780.767 407.873C778.532 414.262 774.577 419.973 769.92 425.435C766.348 429.624 762.214 433.829 757.98 438.137C756.726 439.412 755.463 440.698 754.203 441.993C751.56 444.712 750.958 448.832 752.673 452.604C753.724 454.916 754.783 457.494 755.372 459.757C755.663 460.876 755.894 462.115 755.873 463.307C755.853 464.414 755.597 466.193 754.149 467.521L747.237 473.865C746.144 474.868 746.346 476.718 748.124 477.33C754.78 479.621 756.894 488.028 751.543 492.939L724.556 517.706C722.244 519.828 719.189 520.984 716.046 520.984C712.902 520.984 709.847 519.828 707.535 517.706L680.549 492.939C675.198 488.028 677.312 479.621 683.968 477.33C685.746 476.718 685.948 474.868 684.855 473.865L677.942 467.521C676.495 466.193 676.24 464.414 676.219 463.307C676.198 462.116 676.429 460.876 676.72 459.758C677.309 457.494 678.367 454.916 679.419 452.604C681.134 448.832 680.532 444.712 677.889 441.993C676.629 440.697 675.366 439.413 674.112 438.137C669.878 433.83 665.744 429.624 662.172 425.435C657.515 419.973 653.56 414.262 651.325 407.873C649.781 403.459 648.773 397.101 648.151 392.088C647.834 389.531 647.606 387.234 647.458 385.576C647.384 384.746 647.279 383.389 647.243 382.923ZM686.494 411.476C691.538 424.716 703.07 430.492 716.046 430.492C729.022 430.492 740.554 424.716 745.598 411.475C748.603 403.585 751.897 396.846 754.607 393.735C755.213 393.038 756.891 392.019 759.843 390.942C762.615 389.93 765.951 389.059 769.23 388.346C772.19 387.702 775.034 387.201 777.263 386.846C777.135 388.129 776.974 389.613 776.777 391.198C776.156 396.206 775.217 401.876 773.953 405.489C772.141 410.669 768.828 415.59 764.427 420.751C761.037 424.727 757.15 428.682 752.956 432.949L752.952 432.953C751.67 434.257 750.36 435.59 749.027 436.962C744.073 442.058 743.305 449.442 746.101 455.592C747.111 457.811 747.958 459.932 748.386 461.577C748.523 462.103 748.596 462.503 748.63 462.788L742.355 468.547C737.004 473.458 739.119 481.865 745.775 484.156C747.552 484.767 747.754 486.618 746.662 487.621L719.676 512.388C718.733 513.252 717.434 513.766 716.046 513.766C714.658 513.766 713.359 513.252 712.417 512.388L685.43 487.621C684.338 486.618 684.54 484.768 686.317 484.156C692.973 481.865 695.087 473.458 689.736 468.547L683.462 462.788C683.496 462.503 683.569 462.103 683.706 461.577C684.134 459.932 684.981 457.811 685.99 455.592C688.787 449.442 688.019 442.058 683.065 436.962C681.73 435.589 680.419 434.254 679.136 432.949C674.942 428.682 671.055 424.727 667.665 420.751C663.264 415.59 659.951 410.669 658.139 405.489C656.875 401.876 655.936 396.206 655.315 391.198C655.118 389.613 654.957 388.129 654.829 386.846C657.058 387.201 659.902 387.702 662.862 388.346C666.142 389.059 669.477 389.93 672.249 390.942C675.201 392.019 676.879 393.038 677.486 393.735C680.195 396.846 683.488 403.585 686.494 411.476Z" fill="#F05C5C"/>
</svg>
